<svg xmlns="http://www.w3.org/2000/svg" viewBox="0 0 24 24">
	<g fill="none" stroke="currentColor" stroke-linecap="round" stroke-linejoin="round" stroke-width="2.5">
		<path fill="currentColor" d="M9 15v5h6v-5Z" opacity=".2" stroke="none" />
		<path fill="currentColor" d="M12 10c-4 0 -7 2 -7 5 4 0 7 -2 7 -5" opacity=".2" stroke="none" />
		<path fill="currentColor" d="M12 8c4 0 7 2 7 5 -4 0 -7 -2 -7 -5" opacity=".2" stroke="none" />
		<path d="M9 15v5h6v-5Z" />
		<path d="M12 4v11" />
		<path d="M12 10c-4 0 -7 2 -7 5 4 0 7 -2 7 -5" />
		<path d="M12 8c4 0 7 2 7 5 -4 0 -7 -2 -7 -5" />
	</g>
</svg>
